<svg id="_8sankoku" data-name="8sankoku" xmlns="http://www.w3.org/2000/svg" viewBox="0 0 300 300"><path d="M19.5,187.8a16.666,16.666,0,0,1,9.6-15.3c14.4-7.2,30-20.1,36.3-43.2a2.282,2.282,0,0,1,2.4-1.8c2.1,0,5.1,1.8,5.1,3C70.5,171,42.6,198,28.8,198,23.1,198,19.5,194.1,19.5,187.8Zm92.4-6.3v-5.7c0-16.2-1.5-27.3-6.6-42.3,0-.3-.3-.6-.3-.9,0-2.1,2.4-3.3,4.5-3.3a2.339,2.339,0,0,1,2.1.9c9,12,21.6,34.5,21.6,45,0,9.6-4.8,19.2-13.2,19.2C115.2,194.4,111.9,190.2,111.9,181.5Zm68.4,0c-4.2-18.9-12.3-33.6-23.4-47.7a1.109,1.109,0,0,1-.3-.9c0-1.8,2.7-3.9,4.8-3.9,1.2,0,39.3,27.9,39.3,48.9,0,15.6-9.9,15.6-10.5,15.6C186,193.5,182.4,189.9,180.3,181.5Zm74.4,3.3c-8.1-21-23.7-39.6-38.7-52.5-.6-.3-.6-.9-.6-1.5a4.5,4.5,0,0,1,4.2-3.9c3.6,0,49.2,27.9,55.2,46.8a22.393,22.393,0,0,1,1.2,7.8c0,9.9-5.4,15.3-10.2,15.3C261.9,196.8,258,192.9,254.7,184.8Z"/></svg>