<?xml version="1.0" encoding="iso-8859-1"?>
<!-- Generator: Adobe Illustrator 26.0.0, SVG Export Plug-In . SVG Version: 6.00 Build 0)  -->
<svg version="1.0" id="&#x30EC;&#x30A4;&#x30E4;&#x30FC;_1"
	 xmlns="http://www.w3.org/2000/svg" xmlns:xlink="http://www.w3.org/1999/xlink" x="0px" y="0px" viewBox="0 0 7.74 7.74"
	 style="enable-background:new 0 0 7.74 7.74;" xml:space="preserve">
<g>
	<path style="fill:none;stroke:#231815;stroke-width:0.265;stroke-miterlimit:10;" d="M7.559,5.88c0,0.924-0.756,1.679-1.68,1.679
		H1.861c-0.924,0-1.68-0.755-1.68-1.679V1.862c0-0.924,0.756-1.68,1.68-1.68h4.018c0.924,0,1.68,0.756,1.68,1.68V5.88z"/>
	<path style="fill:#231815;" d="M5.857,2.151l0.227-0.27H6.17c0.356,0.277,0.424,0.344,0.424,0.418c0,0.061-0.061,0.104-0.252,0.165
		c-0.012,1.744-0.024,2.542-0.16,3.18C6.011,6.472,5.642,6.73,4.931,6.737c-0.019-0.234-0.093-0.32-0.578-0.467l0.025-0.147
		c0.429,0.073,0.62,0.098,0.779,0.098c0.301,0,0.504-0.141,0.62-0.663c0.117-0.528,0.16-1.215,0.16-2.645V2.359h-3.26
		C2.303,2.931,1.83,3.446,1.205,3.846L1.1,3.734c0.792-0.669,1.301-1.547,1.553-2.21c0.074-0.19,0.141-0.38,0.16-0.552L2.862,0.96
		c0.528,0.233,0.62,0.3,0.62,0.386s-0.068,0.099-0.32,0.111C3.058,1.696,2.935,1.924,2.807,2.151H5.857 M4.237,3.212l0.196-0.239
		h0.086C4.838,3.225,4.906,3.286,4.906,3.36c0,0.055-0.049,0.098-0.209,0.153v0.78l0.031,1.098L4.666,5.454L4.304,5.466V5.097H2.917
		v0.362L2.856,5.52L2.493,5.533l0.031-1.21V3.605c0-0.282-0.024-0.436-0.092-0.626l0.037-0.037c0.196,0.086,0.368,0.172,0.546,0.27
		H4.237z M4.304,3.421H2.917v1.467h1.387V3.421z"/>
</g>
</svg>
