<?xml version="1.0" encoding="iso-8859-1"?>
<!-- Generator: Adobe Illustrator 24.3.0, SVG Export Plug-In . SVG Version: 6.00 Build 0)  -->
<svg version="1.1" id="&#x30EC;&#x30A4;&#x30E4;&#x30FC;_1"
	 xmlns="http://www.w3.org/2000/svg" xmlns:xlink="http://www.w3.org/1999/xlink" x="0px" y="0px" viewBox="0 0 300 300"
	 style="enable-background:new 0 0 300 300;" xml:space="preserve">
<g id="G655B">
	<path d="M47.1,287.4c-2.161,0.159-4.041-1.464-4.2-3.625c-0.014-0.191-0.014-0.384,0-0.575c-0.126-1.61,0.865-3.097,2.4-3.6
		c40.2-12.9,72.9-39,81-54.3c11.4,5.7,22.5,14.7,22.5,18.9c0,2.1-2.1,3.9-6,3.9c-2.349-0.032-4.678-0.437-6.9-1.2
		C108,272.1,54,287.4,47.1,287.4z M118.2,214.8c0,2.4,0.3,4.8,0.3,6.3v0.6c0,2.7-1.2,8.1-11.7,8.1c-4.2,0-7.2-1.5-7.2-6v-1.2
		c0-1.5,0.6-6.6,0.9-12c0.3-10.8,0.9-26.7,0.9-36.3v-74.1c0-11.4-0.9-25.5-2.7-35.4c6.6,1.8,16.2,6.9,22.8,11.1h10.8
		c3.3-10.8,5.7-25.8,6.6-37.5h-7.2c-14.4,0-34.5,1.2-46.8,2.4c-2.7-3.6-5.4-8.7-5.7-13.2c10.5,1.2,34.8,2.7,57.9,2.7H186
		c12.3-17.7,14.4-17.7,15.9-17.7c4.8,0,25.2,16.5,25.2,21.3c0,2.4-1.5,4.5-5.4,4.5h-61.5c-4.8,12-12,27-18.6,37.5h39.3
		c3.098-3.598,6.512-6.911,10.2-9.9c0.6-0.3,0.9-0.6,1.5-0.6c1.8,0,19.2,9.6,19.2,15.9c0,2.4-2.1,5.1-9.3,7.5
		c-0.3,4.8-0.3,83.7-0.3,83.7c0,6.6,0.6,32.7,0.9,37.5c0,3.3,0.6,9.6,0.6,11.4s-1.8,7.5-11.1,7.5c-6,0-8.4-2.7-8.4-6
		c0-1.5,0-4.8,0.3-8.1H118.2z M184.8,84h-66.6v32.4h66.6L184.8,84z M184.8,124.8h-66.6v35.4h66.6L184.8,124.8z M184.8,168.6h-66.6
		v38.1h66.3c0-6.9,0.3-23.7,0.3-30V168.6z M207.9,274.8c-12.6-17.1-30.9-32.1-48.9-42.6c-0.824-0.354-1.313-1.211-1.2-2.1
		c0-1.8,1.8-4.2,3.9-4.2c1.2,0,51.3,17.1,63,35.7c1.8,2.7,2.4,6.3,2.4,9.9c0,12-6.6,12-7.5,12C214.8,283.5,210.3,278.1,207.9,274.8
		L207.9,274.8z"/>
</g>
</svg>
