<?xml version="1.0" encoding="iso-8859-1"?>
<!-- Generator: Adobe Illustrator 26.0.0, SVG Export Plug-In . SVG Version: 6.00 Build 0)  -->
<svg version="1.0" id="&#x30EC;&#x30A4;&#x30E4;&#x30FC;_1"
	 xmlns="http://www.w3.org/2000/svg" xmlns:xlink="http://www.w3.org/1999/xlink" x="0px" y="0px" viewBox="0 0 7.74 7.74"
	 style="enable-background:new 0 0 7.74 7.74;" xml:space="preserve">
<g>
	<path style="fill:#231815;" d="M2.35,4.977c0.407,0.411,0.875,0.562,1.941,0.562c1.085,0,1.684-0.058,2.343-0.151v0.133
		c-0.227,0.064-0.311,0.163-0.335,0.33C5.861,5.874,5.286,5.886,4.423,5.886c-1.348,0-1.84-0.289-2.259-0.874
		c-0.21,0.266-0.408,0.48-0.629,0.654c0.006,0.04,0.006,0.069,0.006,0.098c0,0.093-0.03,0.134-0.096,0.134
		c-0.054,0-0.09-0.029-0.426-0.452l0.018-0.041C1.199,5.382,1.349,5.33,1.481,5.261c0.15-0.076,0.317-0.18,0.479-0.307V3.436H1.559
		l-0.42,0.035L1.067,3.205L1.559,3.24h0.323l0.192-0.226h0.084c0.353,0.237,0.419,0.295,0.419,0.364
		c0,0.058-0.054,0.099-0.227,0.157V4.977 M1.397,0.964c0.635,0.191,1.049,0.498,1.049,0.805c0,0.121-0.084,0.22-0.198,0.22
		c-0.108,0-0.162-0.041-0.294-0.284c-0.12-0.232-0.359-0.446-0.629-0.626L1.397,0.964z M4.363,1.717V1.195
		c0-0.208-0.018-0.312-0.066-0.446l0.03-0.034c0.528,0.092,0.672,0.133,0.672,0.214c0,0.058-0.061,0.093-0.258,0.139v0.649h0.683
		l0.264-0.325h0.084l0.383,0.382v0.139H4.741v0.892h1.096l0.282-0.336h0.084l0.396,0.394v0.139H3.087l-0.42,0.035L2.595,2.77
		l0.492,0.035h1.276V1.913H3.35C3.195,2.191,3.003,2.446,2.739,2.707L2.625,2.62c0.288-0.4,0.456-0.805,0.564-1.21
		c0.042-0.157,0.06-0.296,0.06-0.406L3.29,0.987c0.468,0.15,0.564,0.203,0.564,0.266c0,0.07-0.06,0.11-0.258,0.116
		C3.548,1.491,3.5,1.607,3.452,1.717H4.363z M3.644,4.948V5.18l-0.06,0.058L3.243,5.249l0.029-0.892V3.801
		c0-0.202,0-0.278-0.053-0.463l0.036-0.035C3.41,3.361,3.56,3.431,3.728,3.529h1.576l0.192-0.22H5.58
		c0.318,0.226,0.383,0.29,0.383,0.359c0,0.052-0.048,0.093-0.203,0.145v0.602l0.03,0.736L5.73,5.208L5.382,5.22V4.948H3.644z
		 M3.644,4.751h1.738V3.726H3.644V4.751z"/>
	<path style="fill:none;stroke:#231815;stroke-width:0.26;stroke-miterlimit:10;" d="M7.551,7.038l0.004-1.512V3.055L7.553,1.642
		c0-0.78-0.661-1.418-1.472-1.418H1.66c-0.811,0-1.474,0.638-1.474,1.418l0.002,1.414c0,1.421-0.003,3.636-0.002,3.983"/>
	<polyline style="fill:none;stroke:#231815;stroke-width:0.26;stroke-miterlimit:10;" points="0.185,6.409 0.185,7.445 1.403,6.409 
		2.632,7.516 3.857,6.409 5.09,7.516 6.327,6.409 7.555,7.448 7.555,6.409 	"/>
</g>
</svg>
