<svg id="_8sankoku" data-name="8sankoku" xmlns="http://www.w3.org/2000/svg" viewBox="0 0 300 300"><path d="M135.9,262.5c1.5-23.4,2.1-66,2.1-74.1l.3-59.1V117c-23.1,36.6-45.6,58.5-48.9,58.5-2.1,0-4.5-2.1-4.5-4.2,0-.6.3-.9.6-1.5C130.8,117,159,41.4,159,15.3c6,.6,32.4,6,32.4,13.8,0,3.3-3.9,6-12.6,6.3-5.4,16.2-15.3,38.4-27.9,60.9,12.9,1.8,15.9,3.9,15.9,7.5,0,2.7-2.7,5.7-9.3,7.5-.3,7.2-.6,77.1-.6,77.1,0,5.1-.3,26.4-.3,47.4,0,10.5,0,21,.3,29.7,0,3,.3,7.5.3,11.1,0,5.4-6.9,7.2-11.7,7.2-7.5,0-10.5-1.5-10.5-5.7v-.6Z"/></svg>