<svg id="_8sankoku" data-name="8sankoku" xmlns="http://www.w3.org/2000/svg" viewBox="0 0 300 300"><path d="M158.55,275.7c0,1.8-1.5,6.6-12.3,6.6-4.5,0-8.4-.9-8.4-5.7V276c0-2.7.6-11.7.9-16.5.9-25.8,1.2-65.1,1.2-73.8V91.8h-2.4c-14.4,0-23.4,0-39,1.8-2.4-2.4-4.8-8.1-5.1-12.3,12.3,1.5,27.3,2.4,48.3,2.4h27.9c5.1-6.9,12.3-16.5,14.1-16.5a2.289,2.289,0,0,1,1.5.6c5.7,3,21.3,14.4,21.3,19.5,0,2.1-1.5,4.5-5.1,4.5h-44.4v71.7c0,5.4.3,65.4.6,78.3,0,4.5.6,15.3.6,24.9,0,3,.3,7.5.3,8.7Zm-28.2-150.9c0,2.4-2.4,5.4-7.8,7.2,0,58.5-1.8,87-21,124.5a4.793,4.793,0,0,1-3.9,2.7,3.148,3.148,0,0,1-3.3-3.3,3.805,3.805,0,0,1,.3-1.8c7.8-24,12.3-49.2,12.3-81.3,0-20.7,0-45.6-3-54.6C115.049,118.2,130.35,118.8,130.35,124.8ZM141.75,42c-14.4,0-21.3,0-36.9,1.8-2.4-2.1-4.8-7.8-5.1-12,12.3,1.5,25.8,2.1,46.8,2.1h15.9a111.576,111.576,0,0,1,12.3-14.4c.6-.3.9-.6,1.5-.6.3,0,.6.3.9.3,6.3,3,20.7,13.8,20.7,18.6,0,2.1-1.2,4.2-4.8,4.2Zm33.9,102c0-2.7,0-18.3-2.4-27,13.8.9,26.1,2.1,26.1,7.8,0,2.4-2.7,5.1-8.4,6.6-.3,4.2-.3,39.9-.3,39.9,0,7.8,0,25.2.6,46.2,0,3,.9,13.5.9,17.1,0,3.9-2.4,7.5-10.8,7.5-3.9,0-7.2-1.5-7.2-6v-.6c0-1.5.3-8.1.6-15,.6-9,.9-21,.9-29.4Z"/></svg>