<?xml version="1.0" encoding="iso-8859-1"?>
<!-- Generator: Adobe Illustrator 26.0.0, SVG Export Plug-In . SVG Version: 6.00 Build 0)  -->
<svg version="1.0" id="&#x30EC;&#x30A4;&#x30E4;&#x30FC;_1"
	 xmlns="http://www.w3.org/2000/svg" xmlns:xlink="http://www.w3.org/1999/xlink" x="0px" y="0px" viewBox="0 0 7.74 7.74"
	 style="enable-background:new 0 0 7.74 7.74;" xml:space="preserve">
<path style="fill:#231815;" d="M7.669,6.742c0,0.51-0.417,0.927-0.927,0.927H0.998c-0.51,0-0.927-0.417-0.927-0.927V0.998
	c0-0.51,0.417-0.927,0.927-0.927h5.745c0.51,0,0.927,0.417,0.927,0.927L7.669,6.742 M0.343,0.888v5.971h7.045V0.888H0.343z"/>
<path style="fill:#231815;" d="M2.066,3.991c0-0.189,0-0.295,0.016-0.656C1.899,3.663,1.786,3.824,1.549,4.113
	c-0.076-0.155-0.129-0.244-0.242-0.4C1.759,3.23,2.082,2.714,2.324,2.092c0.114-0.278,0.194-0.583,0.221-0.778l0.442,0.145
	C2.955,1.548,2.938,1.597,2.879,1.775C2.755,2.147,2.653,2.38,2.475,2.741v3.021c0,0.256,0.006,0.472,0.027,0.661H2.033
	c0.022-0.2,0.033-0.378,0.033-0.672V3.991 M3.687,3.541v2.027c0,0.133,0.032,0.178,0.183,0.205c0.14,0.033,0.345,0.045,0.754,0.045
	c0.663,0,0.926-0.028,1.045-0.1C5.793,5.646,5.847,5.44,5.884,4.951c0.173,0.089,0.232,0.111,0.415,0.15
	C6.218,5.69,6.138,5.929,5.987,6.034C5.804,6.167,5.448,6.212,4.522,6.212c-0.415,0-0.722-0.022-0.894-0.067
	C3.364,6.073,3.283,5.962,3.283,5.696V3.685L3.235,3.702C2.928,3.807,2.868,3.83,2.771,3.88L2.707,3.43
	c0.14-0.022,0.323-0.067,0.479-0.122l0.097-0.034V2.536c0-0.239-0.011-0.417-0.032-0.572h0.463c-0.022,0.15-0.027,0.317-0.027,0.555
	v0.617l0.722-0.25V1.908c0-0.2-0.011-0.355-0.033-0.521h0.453C4.802,1.553,4.797,1.692,4.797,1.903v0.844l0.834-0.289
	C5.847,2.38,5.949,2.342,6.057,2.281c-0.006,0.144-0.006,0.144-0.011,0.26C6.04,3.075,5.992,3.885,5.954,4.23
	C5.9,4.724,5.809,4.824,5.421,4.824c-0.134,0-0.199-0.006-0.355-0.023c-0.017-0.155-0.043-0.255-0.103-0.41
	C5.125,4.424,5.27,4.446,5.384,4.446c0.156,0,0.177-0.044,0.22-0.505c0.022-0.267,0.043-0.678,0.049-1.105L4.797,3.141v1.538
	c0,0.217,0.005,0.383,0.026,0.539H4.376c0.022-0.15,0.033-0.317,0.033-0.55V3.28L3.687,3.541z"/>
</svg>
