<svg id="_8sankoku" data-name="8sankoku" xmlns="http://www.w3.org/2000/svg" viewBox="0 0 300 300"><path d="M136.2,160.2c-29.4,30-56.1,44.7-57.6,44.7a3.928,3.928,0,0,1-3.9-3.6,2.731,2.731,0,0,1,1.2-2.4c35.1-26.1,75.6-70.2,97.2-121.5l-35.4.3c-12,0-40.2,2.1-46.2,3-1.5-2.4-5.1-9.9-5.4-13.5,6.3.9,37.5,2.4,49.8,2.4V43.8a189.212,189.212,0,0,0-2.4-27.9c26.4.9,31.2,4.8,31.2,8.1,0,2.7-3.3,5.7-10.5,7.8-.3,3.6-.3,28.5-.3,37.5l19.5-.3c1.8-2.4,7.8-9,10.2-9,0,0,19.5,10.2,19.5,17.7,0,3-3.3,5.4-10.8,6a307.173,307.173,0,0,1-38.1,56.7v.3c15.9,5.4,42,21,48.6,31.8a24.522,24.522,0,0,1,3.3,12c0,5.4-2.4,10.5-8.1,10.5-3.3,0-7.2-2.7-9.9-7.8-8.7-16.5-21.3-29.1-33.9-39v68.4c0,9.3,0,26.1.6,47.1,0,3,.3,9.3.3,12.9,0,6.9-9,7.8-12.9,7.8-4.8,0-8.4-1.2-8.4-6v-.9c1.2-15.9,2.4-41.1,2.4-62.1Z"/></svg>