<?xml version="1.0" encoding="iso-8859-1"?>
<!-- Generator: Adobe Illustrator 26.0.0, SVG Export Plug-In . SVG Version: 6.00 Build 0)  -->
<svg version="1.0" id="&#x30EC;&#x30A4;&#x30E4;&#x30FC;_1"
	 xmlns="http://www.w3.org/2000/svg" xmlns:xlink="http://www.w3.org/1999/xlink" x="0px" y="0px" viewBox="0 0 7.74 7.74"
	 style="enable-background:new 0 0 7.74 7.74;" xml:space="preserve">
<g>
	<path style="fill:#231815;" d="M7.669,6.742c0,0.51-0.417,0.927-0.927,0.927H0.998c-0.51,0-0.927-0.417-0.927-0.927V0.998
		c0-0.51,0.417-0.927,0.927-0.927h5.745c0.51,0,0.927,0.417,0.927,0.927L7.669,6.742 M0.344,0.889V6.86h7.045V0.889H0.344z"/>
	<path style="fill:#231815;" d="M3.134,2.815c0.415,0.278,0.415,0.278,0.754,0.583c0.42-0.383,0.663-0.655,0.991-1.116H3.328
		C2.935,2.749,2.472,3.138,1.863,3.51c-0.075-0.127-0.14-0.205-0.264-0.322c0.523-0.289,0.943-0.616,1.304-1.011
		C3.21,1.828,3.393,1.56,3.511,1.283l0.442,0.15C3.807,1.65,3.759,1.722,3.624,1.905h1.169c0.205,0,0.339-0.005,0.49-0.027
		L5.515,2.15c-0.06,0.072-0.087,0.1-0.189,0.244C4.858,3.038,4.325,3.577,3.619,4.115h1.917c0.189,0,0.286-0.005,0.41-0.022
		C5.924,4.232,5.919,4.37,5.919,4.56v1.366c0,0.183,0.011,0.377,0.032,0.505H5.499V6.125H3.307V6.43H2.865
		c0.016-0.155,0.032-0.344,0.032-0.505V4.62C2.493,4.87,2.24,5.004,1.745,5.226c-0.07-0.161-0.124-0.244-0.253-0.389
		c0.802-0.294,1.384-0.621,2.073-1.166C3.307,3.409,3.177,3.299,2.816,3.055L3.134,2.815 M3.312,5.737h2.192V4.504H3.312V5.737z"/>
</g>
</svg>
