<?xml version="1.0" encoding="iso-8859-1"?>
<!-- Generator: Adobe Illustrator 26.0.0, SVG Export Plug-In . SVG Version: 6.00 Build 0)  -->
<svg version="1.0" id="&#x30EC;&#x30A4;&#x30E4;&#x30FC;_1"
	 xmlns="http://www.w3.org/2000/svg" xmlns:xlink="http://www.w3.org/1999/xlink" x="0px" y="0px" viewBox="0 0 7.74 7.74"
	 style="enable-background:new 0 0 7.74 7.74;" xml:space="preserve">
<g>
	<path style="fill:#231815;" d="M7.669,6.742c0,0.51-0.417,0.927-0.927,0.927H0.998c-0.51,0-0.927-0.417-0.927-0.927V0.998
		c0-0.51,0.417-0.927,0.927-0.927h5.745c0.51,0,0.927,0.417,0.927,0.927L7.669,6.742 M0.345,0.888v5.971h7.044V0.888H0.345z"/>
	<path style="fill:#231815;" d="M2.465,4.595C2.309,5.112,2.18,5.473,2.024,5.8C1.997,5.856,1.932,5.989,1.76,6.328L1.399,5.989
		C1.62,5.767,1.894,5.145,2.131,4.334L2.465,4.595 M1.641,2.807c0.372,0.228,0.566,0.367,0.91,0.672L2.314,3.84
		C1.927,3.468,1.797,3.368,1.41,3.124L1.641,2.807z M1.873,1.435C2.217,1.68,2.46,1.886,2.718,2.157L2.465,2.491
		C2.142,2.136,1.98,1.996,1.609,1.741L1.873,1.435z M6.122,2.646C6.079,2.663,6.063,2.668,6.003,2.69
		C5.723,2.807,5.486,2.886,5.19,2.957c0.043,0.489,0.065,0.65,0.135,0.989c0.274-0.151,0.49-0.306,0.727-0.528l0.253,0.311
		C5.89,4.04,5.675,4.179,5.422,4.317C5.648,5.112,5.89,5.539,6.354,6C6.208,6.15,6.186,6.183,6.052,6.39
		C5.626,5.9,5.389,5.468,5.169,4.795c-0.173-0.544-0.248-0.916-0.345-1.76c-0.183,0.039-0.242,0.05-0.452,0.077v2.655
		c0,0.266,0.01,0.444,0.032,0.605H3.941C3.962,6.2,3.973,6.006,3.973,5.761V3.157C3.806,3.175,3.795,3.175,3.386,3.201
		C3.348,4.812,3.171,5.656,2.729,6.39C2.621,6.25,2.546,6.172,2.39,6.078C2.61,5.756,2.74,5.412,2.842,4.89
		c0.119-0.606,0.162-1.206,0.162-2.261c0-0.322-0.006-0.511-0.022-0.738c0.065,0.005,0.103,0.005,0.135,0.005
		c0.431,0,1.249-0.127,1.82-0.283C5.233,1.535,5.465,1.442,5.643,1.33l0.339,0.355C5.89,1.719,5.89,1.719,5.739,1.774
		C5.077,2.03,4.334,2.185,3.391,2.257V2.84C4.226,2.796,4.7,2.724,5.239,2.563c0.28-0.084,0.452-0.161,0.592-0.256L6.122,2.646z"/>
</g>
</svg>
