<?xml version="1.0" encoding="iso-8859-1"?>
<!-- Generator: Adobe Illustrator 26.0.0, SVG Export Plug-In . SVG Version: 6.00 Build 0)  -->
<svg version="1.0" id="&#x30EC;&#x30A4;&#x30E4;&#x30FC;_1"
	 xmlns="http://www.w3.org/2000/svg" xmlns:xlink="http://www.w3.org/1999/xlink" x="0px" y="0px" viewBox="0 0 7.74 7.74"
	 style="enable-background:new 0 0 7.74 7.74;" xml:space="preserve">
<path style="fill:#231815;" d="M7.642,5.925v-4.11c0-0.944-0.773-1.717-1.717-1.717H1.816c-0.944,0-1.717,0.773-1.717,1.717v4.11
	c0,0.945,0.773,1.717,1.717,1.717h4.108c0.944,0,1.717-0.772,1.717-1.717 M2.645,6.559C2.355,6.89,1.873,6.921,1.549,6.636
	c-0.331-0.292-0.362-0.773-0.07-1.105c0.285-0.323,0.766-0.354,1.098-0.063C2.901,5.753,2.931,6.235,2.645,6.559 M2.923,4.771
	c0.693-0.833,0.975-1.2,1.45-1.891c0.514-0.751,0.572-0.847,1.142-1.815c0.07-0.125,0.194-0.297,0.248-0.357
	C5.981,0.46,6.276,0.505,6.652,0.836c0.377,0.332,0.452,0.611,0.233,0.86C6.772,1.823,6.759,1.839,6.02,2.419
	c-0.865,0.68-1.885,1.628-2.803,2.61L2.923,4.771z"/>
</svg>
