<?xml version="1.0" encoding="iso-8859-1"?>
<!-- Generator: Adobe Illustrator 26.0.0, SVG Export Plug-In . SVG Version: 6.00 Build 0)  -->
<svg version="1.0" id="&#x30EC;&#x30A4;&#x30E4;&#x30FC;_1"
	 xmlns="http://www.w3.org/2000/svg" xmlns:xlink="http://www.w3.org/1999/xlink" x="0px" y="0px" viewBox="0 0 7.74 7.74"
	 style="enable-background:new 0 0 7.74 7.74;" xml:space="preserve">
<g>
	<path style="fill:#231815;" d="M7.669,6.742c0,0.51-0.417,0.927-0.927,0.927H0.998c-0.51,0-0.927-0.417-0.927-0.927V0.998
		c0-0.51,0.417-0.927,0.927-0.927h5.745c0.51,0,0.927,0.417,0.927,0.927L7.669,6.742 M0.344,0.889V6.86h7.045V0.889H0.344z"/>
	<path style="fill:#231815;" d="M2.732,1.968c-0.34,0.039-0.587,0.067-0.975,0.089C1.725,1.94,1.698,1.885,1.606,1.724
		c0.916-0.017,1.901-0.172,2.278-0.361l0.253,0.333C4.084,1.702,4.057,1.707,3.944,1.74c-0.291,0.073-0.55,0.123-0.846,0.173v0.405
		h0.63c0.242,0,0.372-0.006,0.479-0.028v0.383C4.116,2.657,4.041,2.651,3.793,2.651H3.098v0.311h0.56
		c0.221,0,0.339-0.005,0.463-0.017c-0.01,0.106-0.01,0.2-0.01,0.489v0.678c0,0.272,0.005,0.449,0.01,0.516
		c-0.145-0.006-0.247-0.011-0.49-0.011H3.098V4.95h0.533c0.275,0,0.372-0.005,0.49-0.022v0.383c-0.102-0.017-0.183-0.022-0.42-0.022
		H3.098V5.65c0.285-0.033,0.474-0.061,0.996-0.145v0.339c0.27-0.355,0.469-0.794,0.593-1.305C4.789,4.106,4.843,3.628,4.87,2.951
		H4.768c-0.216,0-0.334,0.006-0.485,0.028V2.54C4.412,2.557,4.525,2.562,4.73,2.562h0.151c0.005-0.183,0.011-0.288,0.011-0.477
		c0-0.445-0.006-0.528-0.038-0.689h0.458C5.284,1.502,5.279,1.618,5.279,1.829c-0.005,0.1-0.005,0.1-0.011,0.733h0.518
		c0.215,0,0.333-0.005,0.49-0.022C6.259,2.668,6.254,2.79,6.243,3.123c-0.027,1.311-0.054,1.788-0.129,2.36
		c-0.086,0.655-0.21,0.8-0.689,0.8c-0.124,0-0.324-0.011-0.523-0.033C4.897,6.094,4.875,5.966,4.821,5.811
		c0.28,0.055,0.41,0.072,0.544,0.072c0.205,0,0.259-0.033,0.307-0.206C5.78,5.311,5.845,4.35,5.855,2.951H5.258
		C5.22,3.745,5.161,4.289,5.042,4.745C4.881,5.389,4.66,5.822,4.229,6.372C4.175,6.294,4.014,6.177,3.863,6.1
		c0.107-0.111,0.14-0.15,0.221-0.245C3.222,6,2.963,6.033,1.865,6.144c-0.14,0.011-0.183,0.017-0.291,0.039L1.498,5.739
		C1.59,5.75,1.66,5.75,1.73,5.75c0.194,0,0.517-0.022,1.002-0.061v-0.4H2.145c-0.167,0-0.356,0.011-0.49,0.028V4.922
		C1.784,4.945,1.913,4.95,2.145,4.95h0.587V4.617H2.226c-0.227,0-0.361,0.005-0.501,0.017c0.01-0.139,0.016-0.25,0.016-0.522V3.44
		c0-0.278-0.006-0.328-0.016-0.495c0.14,0.012,0.285,0.017,0.511,0.017h0.496V2.651H2.016c-0.221,0-0.34,0.006-0.48,0.028V2.29
		c0.146,0.022,0.275,0.028,0.485,0.028h0.711L2.732,1.968 M2.732,3.273h-0.63v0.355h0.63C2.732,3.628,2.732,3.273,2.732,3.273z
		 M2.732,3.939h-0.63v0.367h0.63C2.732,4.306,2.732,3.939,2.732,3.939z M3.098,3.628H3.75V3.273H3.098V3.628z M3.098,4.306H3.75
		V3.94H3.098V4.306z"/>
</g>
</svg>
