<svg id="_8sankoku" data-name="8sankoku" xmlns="http://www.w3.org/2000/svg" viewBox="0 0 300 300"><path d="M275.058,20.846c-.125.026-.247.063-.371.092-17.4,4.127-52.9,5.589-52.9,5.589H78.208s-35.495-1.462-52.895-5.589c-.124-.029-.246-.066-.371-.092-9.179-1.887-10.37-1.226-9.834,8.351.355,6.363,2,12.682,3.486,18.919.231.974,2.681,1.981,4.114,1.994,15.522.143,49.3.09,51.6.09C72,67.076,70.785,83.355,68.521,99.9H23.363c-3.03,9.292-.171,17.017,4.966,24.145.605.84,2.479,1.016,3.768,1.027,9.8.081,31.1.044,33.52.044-7.655,51.854-14.2,103.055-21.8,154.594,1.52.09,2.627.213,3.735.214,10.179.015,33.589.077,33.589.077L94.772,125.115H205.228L218.863,280s23.41-.062,33.589-.077c1.108,0,2.215-.124,3.735-.214-7.608-51.539-14.15-102.74-21.8-154.594,2.424,0,23.723.037,33.52-.044,1.289-.011,3.163-.187,3.768-1.027,5.137-7.128,8-14.853,4.966-24.145H231.479c-2.264-16.544-3.474-32.823-5.784-49.7,2.3,0,36.075.053,51.6-.09,1.433-.013,3.883-1.02,4.114-1.994,1.485-6.237,3.131-12.556,3.486-18.919C285.428,19.62,284.237,18.959,275.058,20.846ZM96.912,99.564l4.922-49.081h96.332l4.922,49.081Z"/></svg>