<?xml version="1.0" encoding="iso-8859-1"?>
<!-- Generator: Adobe Illustrator 26.0.0, SVG Export Plug-In . SVG Version: 6.00 Build 0)  -->
<svg version="1.0" id="&#x30EC;&#x30A4;&#x30E4;&#x30FC;_1"
	 xmlns="http://www.w3.org/2000/svg" xmlns:xlink="http://www.w3.org/1999/xlink" x="0px" y="0px" viewBox="0 0 7.74 7.74"
	 style="enable-background:new 0 0 7.74 7.74;" xml:space="preserve">
<g>
	<path style="fill:#231815;" d="M2.408,5.93c0.407,0.411,0.874,0.561,1.941,0.561c1.085,0,1.684-0.058,2.343-0.15v0.133
		c-0.227,0.064-0.311,0.162-0.335,0.33C5.919,6.827,5.344,6.839,4.481,6.839c-1.348,0-1.84-0.29-2.259-0.875
		c-0.21,0.267-0.407,0.481-0.629,0.655c0.006,0.04,0.006,0.069,0.006,0.098c0,0.093-0.03,0.133-0.096,0.133
		c-0.054,0-0.09-0.029-0.425-0.451l0.018-0.041c0.161-0.023,0.311-0.075,0.443-0.145c0.15-0.075,0.318-0.179,0.479-0.306V4.39H1.617
		l-0.42,0.034L1.125,4.158l0.492,0.034H1.94l0.192-0.225h0.084c0.354,0.237,0.42,0.295,0.42,0.365c0,0.058-0.054,0.098-0.228,0.156
		V5.93 M1.455,1.917C2.09,2.108,2.504,2.415,2.504,2.722c0,0.121-0.084,0.22-0.198,0.22c-0.108,0-0.162-0.041-0.294-0.284
		c-0.12-0.231-0.359-0.446-0.629-0.625L1.455,1.917z M4.421,2.67V2.149c0-0.209-0.018-0.313-0.066-0.446l0.03-0.035
		c0.528,0.093,0.671,0.133,0.671,0.214c0,0.058-0.06,0.093-0.257,0.139V2.67h0.683l0.264-0.325h0.083l0.384,0.383v0.139H4.799v0.891
		h1.096l0.282-0.336h0.084l0.395,0.394v0.139H3.145L2.725,3.99L2.653,3.724l0.492,0.034h1.276V2.867H3.408
		C3.253,3.145,3.061,3.399,2.797,3.66L2.683,3.573c0.288-0.4,0.456-0.805,0.564-1.21c0.042-0.156,0.06-0.295,0.06-0.406L3.349,1.94
		c0.467,0.151,0.563,0.203,0.563,0.267c0,0.069-0.06,0.109-0.258,0.115C3.606,2.444,3.558,2.56,3.51,2.67H4.421z M3.702,5.901v0.231
		L3.642,6.19L3.301,6.202L3.33,5.31V4.754c0-0.202,0-0.278-0.054-0.463l0.037-0.035c0.155,0.058,0.305,0.128,0.473,0.226h1.576
		l0.192-0.22h0.084c0.317,0.226,0.383,0.29,0.383,0.359c0,0.052-0.048,0.093-0.204,0.145v0.602l0.03,0.735L5.788,6.161L5.44,6.173
		V5.901H3.702z M3.702,5.704h1.738V4.679H3.702V5.704z"/>
	<path style="fill:none;stroke:#231815;stroke-width:0.26;stroke-miterlimit:10;" d="M7.55,0.702l0.004,1.512v2.471L7.552,6.097
		c0,0.78-0.661,1.418-1.472,1.418H1.66c-0.811,0-1.474-0.638-1.474-1.418l0.002-1.413c0-1.421-0.003-3.636-0.002-3.983"/>
	<polyline style="fill:none;stroke:#231815;stroke-width:0.26;stroke-miterlimit:10;" points="0.186,1.331 0.186,0.295 1.404,1.331 
		2.633,0.225 3.857,1.331 5.09,0.225 6.326,1.331 7.554,0.292 7.554,1.331 	"/>
</g>
</svg>
