<?xml version="1.0" encoding="iso-8859-1"?>
<!-- Generator: Adobe Illustrator 26.0.0, SVG Export Plug-In . SVG Version: 6.00 Build 0)  -->
<svg version="1.0" id="&#x30EC;&#x30A4;&#x30E4;&#x30FC;_1"
	 xmlns="http://www.w3.org/2000/svg" xmlns:xlink="http://www.w3.org/1999/xlink" x="0px" y="0px" viewBox="0 0 7.74 7.74"
	 style="enable-background:new 0 0 7.74 7.74;" xml:space="preserve">
<g>
	<path style="fill:#231815;" d="M7.669,6.742c0,0.51-0.417,0.927-0.927,0.927H0.998c-0.51,0-0.927-0.417-0.927-0.927V0.998
		c0-0.51,0.417-0.927,0.927-0.927h5.745c0.51,0,0.927,0.417,0.927,0.927L7.669,6.742 M0.344,0.888v5.97h7.045v-5.97H0.344z"/>
	<path style="fill:#231815;" d="M3.334,2.083c0.135-0.266,0.21-0.477,0.28-0.766l0.469,0.072C3.964,1.695,3.889,1.878,3.787,2.083
		h1.281c0.302,0,0.463-0.005,0.652-0.027C5.698,2.239,5.693,2.4,5.693,2.744v2.999c0,0.327,0.005,0.477,0.032,0.638H5.284V6.07
		h-2.79v0.311H2.052C2.074,6.22,2.085,6.043,2.085,5.737V2.744c0-0.333-0.006-0.494-0.027-0.688
		c0.183,0.022,0.344,0.027,0.641,0.027H3.334 M2.494,3.255h2.79V2.478h-2.79V3.255z M2.494,4.443h2.79v-0.8h-2.79V4.443z
		 M2.494,5.676h2.79V4.832h-2.79V5.676z"/>
</g>
</svg>
