<svg id="_8sankoku" data-name="8sankoku" xmlns="http://www.w3.org/2000/svg" viewBox="0 0 300 300"><path d="M92.1,57.3c.3,7.5,1.8,57.3,1.8,69.6,0,80.7-23.1,116.7-63.9,150.9-.6.3-.9.6-1.5.6a5.1,5.1,0,0,1-4.5-4.5,4.264,4.264,0,0,1,.6-1.8C57.6,238.5,73.2,201.6,75,141a470.183,470.183,0,0,1-41.1,40.2,29.583,29.583,0,0,1,1.8,9c0,3-1.2,4.5-3,4.5-6.3,0-19.2-18-22.2-24.3,26.1-10.2,57.3-33.9,64.5-40.2V119.1c-.9-36-2.1-59.7-6.3-82.5,9,2.1,18.3,6.9,26.1,12h66V41.1c0-8.7-.3-17.7-2.7-27.6,8.7,0,33,.3,33,8.1,0,3-3.6,6.3-11.1,8.1,0,1.8-.3,12.3-.3,18.9h62.7a147.939,147.939,0,0,1,15-16.5,2.205,2.205,0,0,1,1.8-.6c2.4,0,25.5,16.2,25.5,21.9,0,2.1-2.1,3.9-5.7,3.9ZM43.2,115.5A109.313,109.313,0,0,0,19.8,64.2a2.274,2.274,0,0,1-.6-1.2c0-1.5,2.4-3,4.2-3,2.4,0,38.4,28.8,38.4,50.1,0,8.1-3.3,15.6-10.2,15.6C48,125.7,44.4,122.4,43.2,115.5Z"/></svg>