<?xml version="1.0" encoding="iso-8859-1"?>
<!-- Generator: Adobe Illustrator 26.0.0, SVG Export Plug-In . SVG Version: 6.00 Build 0)  -->
<svg version="1.0" id="&#x30EC;&#x30A4;&#x30E4;&#x30FC;_1"
	 xmlns="http://www.w3.org/2000/svg" xmlns:xlink="http://www.w3.org/1999/xlink" x="0px" y="0px" viewBox="0 0 7.74 7.74"
	 style="enable-background:new 0 0 7.74 7.74;" xml:space="preserve">
<g>
	<path style="fill:none;stroke:#231815;stroke-width:0.265;stroke-miterlimit:10;" d="M7.559,5.879c0,0.924-0.756,1.68-1.68,1.68
		H1.861c-0.924,0-1.679-0.756-1.679-1.68V1.861c0-0.924,0.755-1.68,1.679-1.68h4.018c0.924,0,1.68,0.756,1.68,1.68V5.879z"/>
	<path style="fill:#231815;" d="M2.381,5.6c0.411,0.429,0.882,0.586,1.957,0.586c1.093,0,1.697-0.06,2.361-0.157v0.139
		C6.47,6.235,6.385,6.337,6.361,6.512C5.92,6.537,5.34,6.549,4.471,6.549c-1.359,0-1.854-0.302-2.277-0.912
		C1.982,5.915,1.783,6.138,1.56,6.319c0.006,0.042,0.006,0.073,0.006,0.103c0,0.096-0.03,0.139-0.097,0.139
		c-0.054,0-0.09-0.03-0.428-0.471l0.018-0.043c0.163-0.024,0.314-0.078,0.446-0.151c0.152-0.078,0.321-0.187,0.484-0.32v-1.6H1.584
		L1.161,4.012L1.089,3.734l0.495,0.037H1.91l0.193-0.236h0.085c0.356,0.248,0.423,0.308,0.423,0.381c0,0.06-0.055,0.102-0.23,0.163
		V5.6 M1.421,1.415c0.64,0.2,1.057,0.52,1.057,0.84c0,0.127-0.085,0.229-0.2,0.229c-0.108,0-0.163-0.042-0.296-0.296
		C1.862,1.947,1.62,1.723,1.348,1.536L1.421,1.415z M3.426,4.344v0.194l-0.06,0.06L3.057,4.61l0.031-1.087V2.967
		c0-0.271-0.024-0.422-0.091-0.604l0.036-0.036C3.22,2.412,3.359,2.484,3.516,2.575h0.816V2.031H3.208L2.786,2.068L2.713,1.79
		l0.495,0.036h1.124V1.675c0-0.199-0.018-0.302-0.085-0.459l0.03-0.036c0.55,0.072,0.64,0.115,0.64,0.187
		c0,0.067-0.048,0.103-0.241,0.163v0.296h1.027l0.259-0.32h0.085l0.374,0.381v0.144H4.676v0.544h0.888l0.187-0.218h0.084
		c0.314,0.23,0.345,0.29,0.345,0.345c0,0.066-0.055,0.102-0.218,0.169v0.658l0.03,0.948l-0.06,0.061L5.618,4.55V4.344H4.676v0.622
		h1.159l0.266-0.338h0.085l0.392,0.399v0.145H4.682L4.706,5.92l-0.06,0.061L4.301,5.993l0.025-0.821H3.051L2.629,5.208L2.556,4.93
		l0.495,0.036h1.281V4.344H3.426z M3.426,3.33h0.906V2.781H3.426V3.33z M4.332,3.535H3.426v0.604h0.906V3.535z M4.676,3.33h0.942
		V2.781H4.676V3.33z M4.676,4.139h0.942V3.535H4.676V4.139z"/>
</g>
</svg>
